<svg width="160" height="10" viewBox="0 0 160 10" fill="none" xmlns="http://www.w3.org/2000/svg">
<path d="M4.07646 0.179125C2.2647 0.565402 1.18461 1.37015 0.435519 2.86697C0.0696831 3.59124 0 3.99362 0 5.13635C0 6.31128 0.0696831 6.63318 0.470361 7.42183C1.37624 9.12789 2.96153 9.94873 5.29592 9.94873C6.63732 9.94873 7.40383 9.75559 8.22261 9.19227L8.78007 8.80599V9.28884C8.78007 9.77169 8.79749 9.78778 9.65111 9.78778H10.5222V7.05165V4.31551H8.08324H5.64433V5.12026V5.925H6.95089C8.50134 5.925 8.62329 6.05376 8.11808 7.08384C7.69998 7.96906 6.89863 8.35534 5.55723 8.35534C3.83257 8.35534 2.63054 7.38964 2.3518 5.78015C1.89886 3.0923 3.62352 1.28967 6.2889 1.65986C6.91605 1.74033 7.26446 1.91737 7.78709 2.40022C8.43166 2.99573 8.53618 3.02792 9.51174 3.02792C10.5047 3.02792 10.5396 3.01183 10.435 2.65774C9.82532 0.774636 6.82895 -0.400291 4.07646 0.179125Z" fill="white"/>
<path d="M62.7669 0.130853C60.0841 0.565415 58.2375 2.85089 58.4814 5.44217C58.7253 8.09783 60.5893 9.7556 63.4812 9.91655C66.0421 10.0453 67.819 9.22447 68.8294 7.38965C69.352 6.47224 69.4043 6.24691 69.4043 4.99151C69.4043 3.96144 69.2997 3.41421 69.0733 2.91527C68.5855 1.94958 67.4357 0.855124 66.4776 0.484941C65.502 0.0986633 63.8819 -0.0461912 62.7669 0.130853ZM64.7878 1.75644C65.6762 1.96567 66.5821 2.73823 66.8957 3.54297C67.2267 4.36381 67.1744 5.90892 66.8086 6.64929C65.833 8.61287 63.1676 8.96695 61.6172 7.32527C60.0145 5.63531 60.7113 2.5129 62.8715 1.82082C63.7251 1.5472 63.847 1.53111 64.7878 1.75644Z" fill="white"/>
<path d="M85.2747 0.130839C83.5152 0.468833 82.1041 1.515 81.3724 3.01183C80.8846 4.02581 80.8846 6.03767 81.3724 7.06774C81.8602 8.08172 82.7138 8.91866 83.7591 9.43369C84.5604 9.81997 84.8217 9.86826 86.4767 9.86826C88.1143 9.86826 88.393 9.81997 89.1769 9.43369C90.2919 8.88647 91.0584 8.1461 91.5287 7.16431C92.3301 5.49044 92.1385 3.51077 91.041 2.03004C89.9086 0.533212 87.4523 -0.271533 85.2747 0.130839ZM88.062 1.99785C88.7414 2.31975 89.2292 2.96354 89.5428 3.94533C90.2396 6.16643 88.7937 8.33924 86.5987 8.33924C84.543 8.33924 83.3584 7.09993 83.341 4.97541C83.341 3.31763 84.1423 2.1427 85.5708 1.74033C86.1457 1.56329 87.4523 1.69205 88.062 1.99785Z" fill="white"/>
<path d="M153.355 0.130836C151.7 0.388354 150.289 1.38624 149.523 2.80259C148.948 3.88095 148.93 6.11814 149.47 7.22869C150.289 8.87037 151.874 9.78778 154.087 9.91653C156.526 10.0453 158.32 9.24055 159.348 7.55058C160.027 6.44004 160.202 4.50865 159.749 3.23715C159.174 1.64376 157.641 0.468828 155.742 0.146931C154.592 -0.0462084 154.505 -0.0462084 153.355 0.130836ZM155.376 1.75642C156.735 2.09441 157.71 3.3981 157.728 4.87883C157.728 7.03555 156.543 8.33923 154.54 8.33923C152.24 8.33923 150.777 6.15033 151.509 3.81657C151.84 2.80259 152.484 2.1427 153.477 1.8208C154.313 1.54719 154.505 1.53109 155.376 1.75642Z" fill="white"/>
<path d="M15.9227 5.0398V9.7878H16.968H18.0132V7.85641V5.92502H19.4766C21.0793 5.92502 21.9329 6.13425 22.1942 6.56882C22.2987 6.72976 22.3684 7.35747 22.3684 7.96907C22.3684 9.75561 22.4033 9.7878 23.6576 9.7878H24.7376L24.668 8.13002C24.5809 6.34349 24.3544 5.69969 23.675 5.40998L23.2569 5.23294L23.8143 4.89495C24.999 4.15458 25.2951 2.5129 24.4415 1.38626C23.7098 0.436659 23.0304 0.291804 19.2849 0.291804H15.9227V5.0398ZM22.2987 2.27148C22.8214 2.85089 22.8388 3.41422 22.2987 3.91316C21.7935 4.37991 21.0967 4.50867 19.4069 4.44429L18.1003 4.396L18.0481 3.04403L17.9958 1.70816L19.9469 1.77254C21.811 1.82082 21.8981 1.83692 22.2987 2.27148Z" fill="white"/>
<path d="M29.859 3.06011C29.859 7.45402 30.19 8.48409 31.8972 9.4176C32.6812 9.83607 32.8554 9.86826 34.6497 9.86826C36.7228 9.86826 37.5067 9.64293 38.3255 8.7899C39.2837 7.8242 39.3533 7.53449 39.4056 3.78438L39.4753 0.291789H38.3255H37.1932L37.1409 3.75219L37.0886 7.2126L36.5312 7.71154C36.0782 8.13001 35.7995 8.24267 35.033 8.30705C33.7438 8.40362 32.9425 8.04953 32.4721 7.14822C32.1586 6.53661 32.1237 6.16643 32.1237 3.38201V0.291789H30.9914H29.859V3.06011Z" fill="white"/>
<path d="M45.0154 5.0398V9.7878H46.1477H47.2801V8.03345V6.27911L49.5099 6.21473C51.374 6.16644 51.8443 6.10206 52.4541 5.79626C53.5167 5.28122 53.9697 4.60524 54.0393 3.41422C54.1439 2.06224 53.6735 1.2575 52.4366 0.694177C51.6004 0.307899 51.4262 0.291804 48.2905 0.291804H45.0154V5.0398ZM51.1649 1.98177C51.6353 2.15881 52.0185 2.97965 51.8966 3.51078C51.6875 4.37991 51.2694 4.55695 49.1789 4.60524L47.2801 4.66962V3.18889V1.69206L49.0744 1.77254C50.05 1.82082 50.9907 1.91739 51.1649 1.98177Z" fill="white"/>
<path d="M97.1035 5.0398V9.7878H98.1488H99.194V8.03345V6.27911L101.511 6.21473C103.671 6.16644 103.88 6.13425 104.664 5.69969C106.319 4.81447 106.702 2.57728 105.413 1.27359C104.56 0.420564 103.915 0.291804 100.379 0.291804H97.1035V5.0398ZM102.574 1.90129C103.497 2.09443 103.932 2.529 103.932 3.26936C103.932 4.34772 103.514 4.54086 101.197 4.60524L99.194 4.66962V3.31765C99.194 2.56119 99.2463 1.90129 99.316 1.85301C99.4727 1.69206 101.772 1.72425 102.574 1.90129Z" fill="white"/>
<path d="M110.169 1.09655V1.90129H111.998H113.828V5.84455V9.7878H114.96H116.092V5.84455V1.90129H117.921H119.751V1.09655V0.291804H114.96H110.169V1.09655Z" fill="white"/>
<path d="M124.28 5.0398V9.7878H125.412H126.544V5.0398V0.291804H125.412H124.28V5.0398Z" fill="white"/>
<path d="M132.294 5.0398V9.7878H133.269H134.245L134.175 5.89283C134.123 3.07622 134.158 2.11053 134.28 2.41633C134.384 2.64166 135.029 4.396 135.691 6.2952L136.91 9.7717L137.903 9.7878H138.879L139.227 8.85429C139.419 8.35535 140.098 6.56882 140.725 4.87885L141.875 1.82082V5.81236V9.7878H142.92H143.966V5.0398V0.291804H142.345H140.743L139.436 3.67173C138.722 5.52265 138.077 7.05166 138.025 7.05166C137.973 7.05166 137.816 6.74586 137.711 6.35958C137.589 5.9894 137.015 4.47648 136.44 2.97965L135.394 0.291804H133.844H132.294V5.0398Z" fill="white"/>
</svg>
